ISO-10303-21;
HEADER;
FILE_DESCRIPTION(('ViewDefinition[DesignTransferView]'),'2;1');
FILE_NAME('/dev/null','2026-05-25T15:06:08+05:00',(''),(''),'IfcOpenShell 0.8.5','IfcOpenShell 0.8.5','Nobody');
FILE_SCHEMA(('IFC4'));
ENDSEC;
DATA;
#1=IFCPROJECT('2kRGjPZS93I8eW0J_aOoiQ',$,'plana-generated',$,$,$,$,(#10),#5);
#2=IFCSIUNIT(*,.LENGTHUNIT.,$,.METRE.);
#3=IFCSIUNIT(*,.AREAUNIT.,$,.SQUARE_METRE.);
#4=IFCSIUNIT(*,.VOLUMEUNIT.,$,.CUBIC_METRE.);
#5=IFCUNITASSIGNMENT((#4,#2,#3));
#6=IFCCARTESIANPOINT((0.,0.,0.));
#7=IFCDIRECTION((0.,0.,1.));
#8=IFCDIRECTION((1.,0.,0.));
#9=IFCAXIS2PLACEMENT3D(#6,#7,#8);
#10=IFCGEOMETRICREPRESENTATIONCONTEXT($,'Model',3,1.0000000000000001E-05,#9,$);
#11=IFCGEOMETRICREPRESENTATIONSUBCONTEXT('Body','Model',*,*,*,*,#10,$,.MODEL_VIEW.,$);
#12=IFCSITE('3QfVsVr6L3uxwJQ_CuTykM',$,'Site',$,$,$,$,$,$,$,$,$,$,$);
#13=IFCRELAGGREGATES('2NmIR716f3ZwJcA0EAfOEH',$,$,$,#1,(#12));
#14=IFCBUILDING('1U4u2_o8T1ePu9j1wP7Vpb',$,'Building 1',$,$,$,$,$,$,$,$,$);
#15=IFCRELAGGREGATES('3yH2YS_ZXF1vKSHFWGl023',$,$,$,#12,(#14));
#16=IFCBUILDINGSTOREY('1PiiAWXVvCfgFJhLidJcv$',$,'\X2\042D044204300436\X0\ 1',$,$,#22,$,$,$,0.);
#17=IFCRELAGGREGATES('15XLSGdY51hQeSk$vnrwBx',$,$,$,#14,(#377,#16));
#18=IFCCARTESIANPOINT((0.,0.,0.));
#19=IFCDIRECTION((0.,0.,1.));
#20=IFCDIRECTION((1.,0.,0.));
#21=IFCAXIS2PLACEMENT3D(#18,#19,#20);
#22=IFCLOCALPLACEMENT($,#21);
#23=IFCSLAB('1uRxc_zVTFsvvrH4rpIXcG',$,'Slab-1',$,$,#115,#41,$,$);
#29=IFCCARTESIANPOINT((0.,0.));
#30=IFCCARTESIANPOINT((24.,0.));
#31=IFCCARTESIANPOINT((24.,14.));
#32=IFCCARTESIANPOINT((0.,14.));
#33=IFCPOLYLINE((#29,#30,#31,#32,#29));
#34=IFCARBITRARYCLOSEDPROFILEDEF(.AREA.,$,#33);
#35=IFCDIRECTION((0.,0.,1.));
#36=IFCCARTESIANPOINT((0.,0.,0.));
#37=IFCAXIS2PLACEMENT3D(#36,$,$);
#38=IFCEXTRUDEDAREASOLID(#34,#37,#35,0.20000000000000001);
#39=IFCSHAPEREPRESENTATION(#11,'Body','SweptSolid',(#38));
#40=IFCPRODUCTDEFINITIONSHAPE($,$,(#39));
#41=IFCPRODUCTDEFINITIONSHAPE($,$,(#40));
#42=IFCWALL('3jcmpkBBX2L9taAhLhyTmh',$,'W-1-1',$,$,#130,#58,$,$);
#48=IFCCARTESIANPOINTLIST2D(((0.,0.),(0.,0.40000000000000002),(24.,0.40000000000000002),(24.,0.),(0.,0.)));
#49=IFCINDEXEDPOLYCURVE(#48,$,.F.);
#50=IFCDIRECTION((0.,0.,1.));
#51=IFCARBITRARYCLOSEDPROFILEDEF(.AREA.,$,#49);
#52=IFCCARTESIANPOINT((0.,0.,0.));
#53=IFCDIRECTION((0.,0.,1.));
#54=IFCDIRECTION((1.,0.,0.));
#55=IFCAXIS2PLACEMENT3D(#52,#53,#54);
#56=IFCEXTRUDEDAREASOLID(#51,#55,#50,3.);
#57=IFCSHAPEREPRESENTATION(#11,'Body','SweptSolid',(#56));
#58=IFCPRODUCTDEFINITIONSHAPE($,$,(#57));
#59=IFCWALL('2JeU4Qvsr9688FSjQ0u8ma',$,'W-1-2',$,$,#135,#75,$,$);
#65=IFCCARTESIANPOINTLIST2D(((0.,0.),(0.,0.40000000000000002),(14.,0.40000000000000002),(14.,0.),(0.,0.)));
#66=IFCINDEXEDPOLYCURVE(#65,$,.F.);
#67=IFCDIRECTION((0.,0.,1.));
#68=IFCARBITRARYCLOSEDPROFILEDEF(.AREA.,$,#66);
#69=IFCCARTESIANPOINT((0.,0.,0.));
#70=IFCDIRECTION((0.,0.,1.));
#71=IFCDIRECTION((1.,0.,0.));
#72=IFCAXIS2PLACEMENT3D(#69,#70,#71);
#73=IFCEXTRUDEDAREASOLID(#68,#72,#67,3.);
#74=IFCSHAPEREPRESENTATION(#11,'Body','SweptSolid',(#73));
#75=IFCPRODUCTDEFINITIONSHAPE($,$,(#74));
#76=IFCWALL('2siDvstTP0GR5hHLbicyg8',$,'W-1-3',$,$,#120,#92,$,$);
#82=IFCCARTESIANPOINTLIST2D(((0.,0.),(0.,0.40000000000000002),(24.,0.40000000000000002),(24.,0.),(0.,0.)));
#83=IFCINDEXEDPOLYCURVE(#82,$,.F.);
#84=IFCDIRECTION((0.,0.,1.));
#85=IFCARBITRARYCLOSEDPROFILEDEF(.AREA.,$,#83);
#86=IFCCARTESIANPOINT((0.,0.,0.));
#87=IFCDIRECTION((0.,0.,1.));
#88=IFCDIRECTION((1.,0.,0.));
#89=IFCAXIS2PLACEMENT3D(#86,#87,#88);
#90=IFCEXTRUDEDAREASOLID(#85,#89,#84,3.);
#91=IFCSHAPEREPRESENTATION(#11,'Body','SweptSolid',(#90));
#92=IFCPRODUCTDEFINITIONSHAPE($,$,(#91));
#93=IFCWALL('3i7vXiIHX08OdmAK6KWUD_',$,'W-1-4',$,$,#125,#109,$,$);
#99=IFCCARTESIANPOINTLIST2D(((0.,0.),(0.,0.40000000000000002),(14.,0.40000000000000002),(14.,0.),(0.,0.)));
#100=IFCINDEXEDPOLYCURVE(#99,$,.F.);
#101=IFCDIRECTION((0.,0.,1.));
#102=IFCARBITRARYCLOSEDPROFILEDEF(.AREA.,$,#100);
#103=IFCCARTESIANPOINT((0.,0.,0.));
#104=IFCDIRECTION((0.,0.,1.));
#105=IFCDIRECTION((1.,0.,0.));
#106=IFCAXIS2PLACEMENT3D(#103,#104,#105);
#107=IFCEXTRUDEDAREASOLID(#102,#106,#101,3.);
#108=IFCSHAPEREPRESENTATION(#11,'Body','SweptSolid',(#107));
#109=IFCPRODUCTDEFINITIONSHAPE($,$,(#108));
#110=IFCRELCONTAINEDINSPATIALSTRUCTURE('3lriX3UmX7hxJpxc4iACW$',$,$,$,(#23,#76,#93,#42,#59),#16);
#111=IFCCARTESIANPOINT((0.,0.,-0.20000000000000001));
#112=IFCDIRECTION((0.,0.,1.));
#113=IFCDIRECTION((1.,0.,0.));
#114=IFCAXIS2PLACEMENT3D(#111,#112,#113);
#115=IFCLOCALPLACEMENT(#22,#114);
#116=IFCCARTESIANPOINT((24.,14.,0.));
#117=IFCDIRECTION((0.,0.,1.));
#118=IFCDIRECTION((-1.,1.2246467991473532E-16,0.));
#119=IFCAXIS2PLACEMENT3D(#116,#117,#118);
#120=IFCLOCALPLACEMENT(#22,#119);
#121=IFCCARTESIANPOINT((0.,14.,0.));
#122=IFCDIRECTION((0.,0.,1.));
#123=IFCDIRECTION((6.123233995736766E-17,-1.,0.));
#124=IFCAXIS2PLACEMENT3D(#121,#122,#123);
#125=IFCLOCALPLACEMENT(#22,#124);
#126=IFCCARTESIANPOINT((0.,0.,0.));
#127=IFCDIRECTION((0.,0.,1.));
#128=IFCDIRECTION((1.,0.,0.));
#129=IFCAXIS2PLACEMENT3D(#126,#127,#128);
#130=IFCLOCALPLACEMENT(#22,#129);
#131=IFCCARTESIANPOINT((24.,0.,0.));
#132=IFCDIRECTION((0.,0.,1.));
#133=IFCDIRECTION((6.123233995736766E-17,1.,0.));
#134=IFCAXIS2PLACEMENT3D(#131,#132,#133);
#135=IFCLOCALPLACEMENT(#22,#134);
#136=IFCSPACE('1ZHJ53gsn55vBc_UT6QfuD',$,'\X2\041A043E044004380434043E0440\X0\ 1-1',$,$,#160,#154,$,$,$,$);
#142=IFCCARTESIANPOINT((0.,0.));
#143=IFCCARTESIANPOINT((24.,0.));
#144=IFCCARTESIANPOINT((24.,1.6000000000000001));
#145=IFCCARTESIANPOINT((0.,1.6000000000000001));
#146=IFCPOLYLINE((#142,#143,#144,#145,#142));
#147=IFCARBITRARYCLOSEDPROFILEDEF(.AREA.,$,#146);
#148=IFCDIRECTION((0.,0.,1.));
#149=IFCCARTESIANPOINT((0.,0.,0.));
#150=IFCAXIS2PLACEMENT3D(#149,$,$);
#151=IFCEXTRUDEDAREASOLID(#147,#150,#148,2.3999999999999999);
#152=IFCSHAPEREPRESENTATION(#11,'Body','SweptSolid',(#151));
#153=IFCPRODUCTDEFINITIONSHAPE($,$,(#152));
#154=IFCPRODUCTDEFINITIONSHAPE($,$,(#153));
#155=IFCRELAGGREGATES('1XKFQW10PAtxHy_mPc2PLY',$,$,$,#16,(#281,#233,#353,#185,#161,#257,#136,#305,#209,#329));
#156=IFCCARTESIANPOINT((0.,6.,0.));
#157=IFCDIRECTION((0.,0.,1.));
#158=IFCDIRECTION((1.,0.,0.));
#159=IFCAXIS2PLACEMENT3D(#156,#157,#158);
#160=IFCLOCALPLACEMENT(#22,#159);
#161=IFCSPACE('0fYWMMkeLFaAonpP6vTPtJ',$,'\X2\041B043804440442\X0\ \X2\043F043004410441\X0\. 1-1',$,$,#184,#179,$,$,$,$);
#167=IFCCARTESIANPOINT((0.,0.));
#168=IFCCARTESIANPOINT((1.5,0.));
#169=IFCCARTESIANPOINT((1.5,1.5));
#170=IFCCARTESIANPOINT((0.,1.5));
#171=IFCPOLYLINE((#167,#168,#169,#170,#167));
#172=IFCARBITRARYCLOSEDPROFILEDEF(.AREA.,$,#171);
#173=IFCDIRECTION((0.,0.,1.));
#174=IFCCARTESIANPOINT((0.,0.,0.));
#175=IFCAXIS2PLACEMENT3D(#174,$,$);
#176=IFCEXTRUDEDAREASOLID(#172,#175,#173,3.);
#177=IFCSHAPEREPRESENTATION(#11,'Body','SweptSolid',(#176));
#178=IFCPRODUCTDEFINITIONSHAPE($,$,(#177));
#179=IFCPRODUCTDEFINITIONSHAPE($,$,(#178));
#180=IFCCARTESIANPOINT((11.,6.5,0.));
#181=IFCDIRECTION((0.,0.,1.));
#182=IFCDIRECTION((1.,0.,0.));
#183=IFCAXIS2PLACEMENT3D(#180,#181,#182);
#184=IFCLOCALPLACEMENT(#22,#183);
#185=IFCSPACE('1gUaoEJy11yBAMJyhbZ$Nl',$,'\X2\041B043504410442043D043804460430\X0\ 1-1',$,$,#208,#203,$,$,$,$);
#191=IFCCARTESIANPOINT((0.,0.));
#192=IFCCARTESIANPOINT((2.1000000000000001,0.));
#193=IFCCARTESIANPOINT((2.1000000000000001,5.5));
#194=IFCCARTESIANPOINT((0.,5.5));
#195=IFCPOLYLINE((#191,#192,#193,#194,#191));
#196=IFCARBITRARYCLOSEDPROFILEDEF(.AREA.,$,#195);
#197=IFCDIRECTION((0.,0.,1.));
#198=IFCCARTESIANPOINT((0.,0.,0.));
#199=IFCAXIS2PLACEMENT3D(#198,$,$);
#200=IFCEXTRUDEDAREASOLID(#196,#199,#197,3.);
#201=IFCSHAPEREPRESENTATION(#11,'Body','SweptSolid',(#200));
#202=IFCPRODUCTDEFINITIONSHAPE($,$,(#201));
#203=IFCPRODUCTDEFINITIONSHAPE($,$,(#202));
#204=IFCCARTESIANPOINT((13.,4.5,0.));
#205=IFCDIRECTION((0.,0.,1.));
#206=IFCDIRECTION((1.,0.,0.));
#207=IFCAXIS2PLACEMENT3D(#204,#205,#206);
#208=IFCLOCALPLACEMENT(#22,#207);
#209=IFCSPACE('0n5PykSpn9VB6v_GviPAbv',$,'\X2\0413043E044104420438043D0430044F\X0\ (\X2\043A0432\X0\.1 2\X2\041A\X0\)',$,$,#232,#227,$,$,$,$);
#215=IFCCARTESIANPOINT((0.,0.));
#216=IFCCARTESIANPOINT((4.5,0.));
#217=IFCCARTESIANPOINT((4.5,5.5999999999999996));
#218=IFCCARTESIANPOINT((0.,5.5999999999999996));
#219=IFCPOLYLINE((#215,#216,#217,#218,#215));
#220=IFCARBITRARYCLOSEDPROFILEDEF(.AREA.,$,#219);
#221=IFCDIRECTION((0.,0.,1.));
#222=IFCCARTESIANPOINT((0.,0.,0.));
#223=IFCAXIS2PLACEMENT3D(#222,$,$);
#224=IFCEXTRUDEDAREASOLID(#220,#223,#221,2.7000000000000002);
#225=IFCSHAPEREPRESENTATION(#11,'Body','SweptSolid',(#224));
#226=IFCPRODUCTDEFINITIONSHAPE($,$,(#225));
#227=IFCPRODUCTDEFINITIONSHAPE($,$,(#226));
#228=IFCCARTESIANPOINT((0.40000000000000002,0.40000000000000002,0.));
#229=IFCDIRECTION((0.,0.,1.));
#230=IFCDIRECTION((1.,0.,0.));
#231=IFCAXIS2PLACEMENT3D(#228,#229,#230);
#232=IFCLOCALPLACEMENT(#22,#231);
#233=IFCSPACE('0NPva2ON9BV8Tdl6EoCJ4p',$,'\X2\041A04430445043D044F\X0\ (\X2\043A0432\X0\.1 2\X2\041A\X0\)',$,$,#256,#251,$,$,$,$);
#239=IFCCARTESIANPOINT((0.,0.));
#240=IFCCARTESIANPOINT((3.,0.));
#241=IFCCARTESIANPOINT((3.,3.));
#242=IFCCARTESIANPOINT((0.,3.));
#243=IFCPOLYLINE((#239,#240,#241,#242,#239));
#244=IFCARBITRARYCLOSEDPROFILEDEF(.AREA.,$,#243);
#245=IFCDIRECTION((0.,0.,1.));
#246=IFCCARTESIANPOINT((0.,0.,0.));
#247=IFCAXIS2PLACEMENT3D(#246,$,$);
#248=IFCEXTRUDEDAREASOLID(#244,#247,#245,2.7000000000000002);
#249=IFCSHAPEREPRESENTATION(#11,'Body','SweptSolid',(#248));
#250=IFCPRODUCTDEFINITIONSHAPE($,$,(#249));
#251=IFCPRODUCTDEFINITIONSHAPE($,$,(#250));
#252=IFCCARTESIANPOINT((4.9000000000000004,0.40000000000000002,0.));
#253=IFCDIRECTION((0.,0.,1.));
#254=IFCDIRECTION((1.,0.,0.));
#255=IFCAXIS2PLACEMENT3D(#252,#253,#254);
#256=IFCLOCALPLACEMENT(#22,#255);
#257=IFCSPACE('1pPWD1qU97NxoUgTMS61tw',$,'\X2\0421043F0430043B044C043D044F\X0\ (\X2\043A0432\X0\.1 2\X2\041A\X0\)',$,$,#280,#275,$,$,$,$);
#263=IFCCARTESIANPOINT((0.,0.));
#264=IFCCARTESIANPOINT((2.5,0.));
#265=IFCCARTESIANPOINT((2.5,3.5));
#266=IFCCARTESIANPOINT((0.,3.5));
#267=IFCPOLYLINE((#263,#264,#265,#266,#263));
#268=IFCARBITRARYCLOSEDPROFILEDEF(.AREA.,$,#267);
#269=IFCDIRECTION((0.,0.,1.));
#270=IFCCARTESIANPOINT((0.,0.,0.));
#271=IFCAXIS2PLACEMENT3D(#270,$,$);
#272=IFCEXTRUDEDAREASOLID(#268,#271,#269,2.7000000000000002);
#273=IFCSHAPEREPRESENTATION(#11,'Body','SweptSolid',(#272));
#274=IFCPRODUCTDEFINITIONSHAPE($,$,(#273));
#275=IFCPRODUCTDEFINITIONSHAPE($,$,(#274));
#276=IFCCARTESIANPOINT((7.9000000000000004,0.40000000000000002,0.));
#277=IFCDIRECTION((0.,0.,1.));
#278=IFCDIRECTION((1.,0.,0.));
#279=IFCAXIS2PLACEMENT3D(#276,#277,#278);
#280=IFCLOCALPLACEMENT(#22,#279);
#281=IFCSPACE('1z60mKAt5FPQCo1UC1LU6r',$,'\X2\04210430043D044304370435043B\X0\ (\X2\043A0432\X0\.1 2\X2\041A\X0\)',$,$,#304,#299,$,$,$,$);
#287=IFCCARTESIANPOINT((0.,0.));
#288=IFCCARTESIANPOINT((2.,0.));
#289=IFCCARTESIANPOINT((2.,2.6000000000000001));
#290=IFCCARTESIANPOINT((0.,2.6000000000000001));
#291=IFCPOLYLINE((#287,#288,#289,#290,#287));
#292=IFCARBITRARYCLOSEDPROFILEDEF(.AREA.,$,#291);
#293=IFCDIRECTION((0.,0.,1.));
#294=IFCCARTESIANPOINT((0.,0.,0.));
#295=IFCAXIS2PLACEMENT3D(#294,$,$);
#296=IFCEXTRUDEDAREASOLID(#292,#295,#293,2.7000000000000002);
#297=IFCSHAPEREPRESENTATION(#11,'Body','SweptSolid',(#296));
#298=IFCPRODUCTDEFINITIONSHAPE($,$,(#297));
#299=IFCPRODUCTDEFINITIONSHAPE($,$,(#298));
#300=IFCCARTESIANPOINT((4.9000000000000004,3.3999999999999999,0.));
#301=IFCDIRECTION((0.,0.,1.));
#302=IFCDIRECTION((1.,0.,0.));
#303=IFCAXIS2PLACEMENT3D(#300,#301,#302);
#304=IFCLOCALPLACEMENT(#22,#303);
#305=IFCSPACE('2hdgoQsxP1$hmZXJ2lDZ6$',$,'\X2\0413043E044104420438043D0430044F\X0\ (\X2\043A0432\X0\.2 1\X2\041A\X0\)',$,$,#328,#323,$,$,$,$);
#311=IFCCARTESIANPOINT((0.,0.));
#312=IFCCARTESIANPOINT((5.,0.));
#313=IFCCARTESIANPOINT((5.,5.5999999999999996));
#314=IFCCARTESIANPOINT((0.,5.5999999999999996));
#315=IFCPOLYLINE((#311,#312,#313,#314,#311));
#316=IFCARBITRARYCLOSEDPROFILEDEF(.AREA.,$,#315);
#317=IFCDIRECTION((0.,0.,1.));
#318=IFCCARTESIANPOINT((0.,0.,0.));
#319=IFCAXIS2PLACEMENT3D(#318,$,$);
#320=IFCEXTRUDEDAREASOLID(#316,#319,#317,2.7000000000000002);
#321=IFCSHAPEREPRESENTATION(#11,'Body','SweptSolid',(#320));
#322=IFCPRODUCTDEFINITIONSHAPE($,$,(#321));
#323=IFCPRODUCTDEFINITIONSHAPE($,$,(#322));
#324=IFCCARTESIANPOINT((13.6,8.,0.));
#325=IFCDIRECTION((0.,0.,1.));
#326=IFCDIRECTION((1.,0.,0.));
#327=IFCAXIS2PLACEMENT3D(#324,#325,#326);
#328=IFCLOCALPLACEMENT(#22,#327);
#329=IFCSPACE('11fm2JYLv6pPehZD2AbdNJ',$,'\X2\041A04430445043D044F\X0\ (\X2\043A0432\X0\.2 1\X2\041A\X0\)',$,$,#352,#347,$,$,$,$);
#335=IFCCARTESIANPOINT((0.,0.));
#336=IFCCARTESIANPOINT((3.,0.));
#337=IFCCARTESIANPOINT((3.,3.));
#338=IFCCARTESIANPOINT((0.,3.));
#339=IFCPOLYLINE((#335,#336,#337,#338,#335));
#340=IFCARBITRARYCLOSEDPROFILEDEF(.AREA.,$,#339);
#341=IFCDIRECTION((0.,0.,1.));
#342=IFCCARTESIANPOINT((0.,0.,0.));
#343=IFCAXIS2PLACEMENT3D(#342,$,$);
#344=IFCEXTRUDEDAREASOLID(#340,#343,#341,2.7000000000000002);
#345=IFCSHAPEREPRESENTATION(#11,'Body','SweptSolid',(#344));
#346=IFCPRODUCTDEFINITIONSHAPE($,$,(#345));
#347=IFCPRODUCTDEFINITIONSHAPE($,$,(#346));
#348=IFCCARTESIANPOINT((18.600000000000001,8.,0.));
#349=IFCDIRECTION((0.,0.,1.));
#350=IFCDIRECTION((1.,0.,0.));
#351=IFCAXIS2PLACEMENT3D(#348,#349,#350);
#352=IFCLOCALPLACEMENT(#22,#351);
#353=IFCSPACE('27igRlpVPDIPICM3ljHlxa',$,'\X2\04210430043D044304370435043B\X0\ (\X2\043A0432\X0\.2 1\X2\041A\X0\)',$,$,#376,#371,$,$,$,$);
#359=IFCCARTESIANPOINT((0.,0.));
#360=IFCCARTESIANPOINT((2.,0.));
#361=IFCCARTESIANPOINT((2.,2.6000000000000001));
#362=IFCCARTESIANPOINT((0.,2.6000000000000001));
#363=IFCPOLYLINE((#359,#360,#361,#362,#359));
#364=IFCARBITRARYCLOSEDPROFILEDEF(.AREA.,$,#363);
#365=IFCDIRECTION((0.,0.,1.));
#366=IFCCARTESIANPOINT((0.,0.,0.));
#367=IFCAXIS2PLACEMENT3D(#366,$,$);
#368=IFCEXTRUDEDAREASOLID(#364,#367,#365,2.7000000000000002);
#369=IFCSHAPEREPRESENTATION(#11,'Body','SweptSolid',(#368));
#370=IFCPRODUCTDEFINITIONSHAPE($,$,(#369));
#371=IFCPRODUCTDEFINITIONSHAPE($,$,(#370));
#372=IFCCARTESIANPOINT((18.600000000000001,11.,0.));
#373=IFCDIRECTION((0.,0.,1.));
#374=IFCDIRECTION((1.,0.,0.));
#375=IFCAXIS2PLACEMENT3D(#372,#373,#374);
#376=IFCLOCALPLACEMENT(#22,#375);
#377=IFCBUILDINGSTOREY('0tj2iYe$T7xeNPwtZeghEQ',$,'\X2\042D044204300436\X0\ 2',$,$,#382,$,$,$,3.);
#378=IFCCARTESIANPOINT((0.,0.,3.));
#379=IFCDIRECTION((0.,0.,1.));
#380=IFCDIRECTION((1.,0.,0.));
#381=IFCAXIS2PLACEMENT3D(#378,#379,#380);
#382=IFCLOCALPLACEMENT($,#381);
#383=IFCSLAB('3K4vTwpw5BLRh1jIu_rLRQ',$,'Slab-2',$,$,#495,#401,$,$);
#389=IFCCARTESIANPOINT((0.,0.));
#390=IFCCARTESIANPOINT((24.,0.));
#391=IFCCARTESIANPOINT((24.,14.));
#392=IFCCARTESIANPOINT((0.,14.));
#393=IFCPOLYLINE((#389,#390,#391,#392,#389));
#394=IFCARBITRARYCLOSEDPROFILEDEF(.AREA.,$,#393);
#395=IFCDIRECTION((0.,0.,1.));
#396=IFCCARTESIANPOINT((0.,0.,0.));
#397=IFCAXIS2PLACEMENT3D(#396,$,$);
#398=IFCEXTRUDEDAREASOLID(#394,#397,#395,0.20000000000000001);
#399=IFCSHAPEREPRESENTATION(#11,'Body','SweptSolid',(#398));
#400=IFCPRODUCTDEFINITIONSHAPE($,$,(#399));
#401=IFCPRODUCTDEFINITIONSHAPE($,$,(#400));
#402=IFCWALL('3SRgY$1qb6gxjtdZgv51o_',$,'W-2-1',$,$,#480,#418,$,$);
#408=IFCCARTESIANPOINTLIST2D(((0.,0.),(0.,0.40000000000000002),(24.,0.40000000000000002),(24.,0.),(0.,0.)));
#409=IFCINDEXEDPOLYCURVE(#408,$,.F.);
#410=IFCDIRECTION((0.,0.,1.));
#411=IFCARBITRARYCLOSEDPROFILEDEF(.AREA.,$,#409);
#412=IFCCARTESIANPOINT((0.,0.,0.));
#413=IFCDIRECTION((0.,0.,1.));
#414=IFCDIRECTION((1.,0.,0.));
#415=IFCAXIS2PLACEMENT3D(#412,#413,#414);
#416=IFCEXTRUDEDAREASOLID(#411,#415,#410,3.);
#417=IFCSHAPEREPRESENTATION(#11,'Body','SweptSolid',(#416));
#418=IFCPRODUCTDEFINITIONSHAPE($,$,(#417));
#419=IFCWALL('0N9Z7HJqLC2xnFeO1GdQNE',$,'W-2-2',$,$,#485,#435,$,$);
#425=IFCCARTESIANPOINTLIST2D(((0.,0.),(0.,0.40000000000000002),(14.,0.40000000000000002),(14.,0.),(0.,0.)));
#426=IFCINDEXEDPOLYCURVE(#425,$,.F.);
#427=IFCDIRECTION((0.,0.,1.));
#428=IFCARBITRARYCLOSEDPROFILEDEF(.AREA.,$,#426);
#429=IFCCARTESIANPOINT((0.,0.,0.));
#430=IFCDIRECTION((0.,0.,1.));
#431=IFCDIRECTION((1.,0.,0.));
#432=IFCAXIS2PLACEMENT3D(#429,#430,#431);
#433=IFCEXTRUDEDAREASOLID(#428,#432,#427,3.);
#434=IFCSHAPEREPRESENTATION(#11,'Body','SweptSolid',(#433));
#435=IFCPRODUCTDEFINITIONSHAPE($,$,(#434));
#436=IFCWALL('0dhlu_ED57tQfO9dMhAT$M',$,'W-2-3',$,$,#490,#452,$,$);
#442=IFCCARTESIANPOINTLIST2D(((0.,0.),(0.,0.40000000000000002),(24.,0.40000000000000002),(24.,0.),(0.,0.)));
#443=IFCINDEXEDPOLYCURVE(#442,$,.F.);
#444=IFCDIRECTION((0.,0.,1.));
#445=IFCARBITRARYCLOSEDPROFILEDEF(.AREA.,$,#443);
#446=IFCCARTESIANPOINT((0.,0.,0.));
#447=IFCDIRECTION((0.,0.,1.));
#448=IFCDIRECTION((1.,0.,0.));
#449=IFCAXIS2PLACEMENT3D(#446,#447,#448);
#450=IFCEXTRUDEDAREASOLID(#445,#449,#444,3.);
#451=IFCSHAPEREPRESENTATION(#11,'Body','SweptSolid',(#450));
#452=IFCPRODUCTDEFINITIONSHAPE($,$,(#451));
#453=IFCWALL('1PT9A0P4L6P8A4U6JeDgIi',$,'W-2-4',$,$,#475,#469,$,$);
#459=IFCCARTESIANPOINTLIST2D(((0.,0.),(0.,0.40000000000000002),(14.,0.40000000000000002),(14.,0.),(0.,0.)));
#460=IFCINDEXEDPOLYCURVE(#459,$,.F.);
#461=IFCDIRECTION((0.,0.,1.));
#462=IFCARBITRARYCLOSEDPROFILEDEF(.AREA.,$,#460);
#463=IFCCARTESIANPOINT((0.,0.,0.));
#464=IFCDIRECTION((0.,0.,1.));
#465=IFCDIRECTION((1.,0.,0.));
#466=IFCAXIS2PLACEMENT3D(#463,#464,#465);
#467=IFCEXTRUDEDAREASOLID(#462,#466,#461,3.);
#468=IFCSHAPEREPRESENTATION(#11,'Body','SweptSolid',(#467));
#469=IFCPRODUCTDEFINITIONSHAPE($,$,(#468));
#470=IFCRELCONTAINEDINSPATIALSTRUCTURE('2Vcba2UHXBiwmZmGS2WYkY',$,$,$,(#453,#402,#419,#436,#383),#377);
#471=IFCCARTESIANPOINT((0.,14.,0.));
#472=IFCDIRECTION((0.,0.,1.));
#473=IFCDIRECTION((6.123233995736766E-17,-1.,0.));
#474=IFCAXIS2PLACEMENT3D(#471,#472,#473);
#475=IFCLOCALPLACEMENT(#382,#474);
#476=IFCCARTESIANPOINT((0.,0.,0.));
#477=IFCDIRECTION((0.,0.,1.));
#478=IFCDIRECTION((1.,0.,0.));
#479=IFCAXIS2PLACEMENT3D(#476,#477,#478);
#480=IFCLOCALPLACEMENT(#382,#479);
#481=IFCCARTESIANPOINT((24.,0.,0.));
#482=IFCDIRECTION((0.,0.,1.));
#483=IFCDIRECTION((6.123233995736766E-17,1.,0.));
#484=IFCAXIS2PLACEMENT3D(#481,#482,#483);
#485=IFCLOCALPLACEMENT(#382,#484);
#486=IFCCARTESIANPOINT((24.,14.,0.));
#487=IFCDIRECTION((0.,0.,1.));
#488=IFCDIRECTION((-1.,1.2246467991473532E-16,0.));
#489=IFCAXIS2PLACEMENT3D(#486,#487,#488);
#490=IFCLOCALPLACEMENT(#382,#489);
#491=IFCCARTESIANPOINT((0.,0.,-0.20000000000000018));
#492=IFCDIRECTION((0.,0.,1.));
#493=IFCDIRECTION((1.,0.,0.));
#494=IFCAXIS2PLACEMENT3D(#491,#492,#493);
#495=IFCLOCALPLACEMENT(#382,#494);
#496=IFCSPACE('0OMJBSDTL7yhFPaz_83BTW',$,'\X2\041A043E044004380434043E0440\X0\ 2-1',$,$,#520,#514,$,$,$,$);
#502=IFCCARTESIANPOINT((0.,0.));
#503=IFCCARTESIANPOINT((24.,0.));
#504=IFCCARTESIANPOINT((24.,1.6000000000000001));
#505=IFCCARTESIANPOINT((0.,1.6000000000000001));
#506=IFCPOLYLINE((#502,#503,#504,#505,#502));
#507=IFCARBITRARYCLOSEDPROFILEDEF(.AREA.,$,#506);
#508=IFCDIRECTION((0.,0.,1.));
#509=IFCCARTESIANPOINT((0.,0.,0.));
#510=IFCAXIS2PLACEMENT3D(#509,$,$);
#511=IFCEXTRUDEDAREASOLID(#507,#510,#508,2.3999999999999999);
#512=IFCSHAPEREPRESENTATION(#11,'Body','SweptSolid',(#511));
#513=IFCPRODUCTDEFINITIONSHAPE($,$,(#512));
#514=IFCPRODUCTDEFINITIONSHAPE($,$,(#513));
#515=IFCRELAGGREGATES('0wOamck_94Tvy2w5zTwI_G',$,$,$,#377,(#593,#713,#496,#665,#545,#617,#569,#689,#521,#641));
#516=IFCCARTESIANPOINT((0.,6.,0.));
#517=IFCDIRECTION((0.,0.,1.));
#518=IFCDIRECTION((1.,0.,0.));
#519=IFCAXIS2PLACEMENT3D(#516,#517,#518);
#520=IFCLOCALPLACEMENT(#382,#519);
#521=IFCSPACE('15nsqsWsXBSP9FuL9jPNBt',$,'\X2\041B043804440442\X0\ \X2\043F043004410441\X0\. 2-1',$,$,#544,#539,$,$,$,$);
#527=IFCCARTESIANPOINT((0.,0.));
#528=IFCCARTESIANPOINT((1.5,0.));
#529=IFCCARTESIANPOINT((1.5,1.5));
#530=IFCCARTESIANPOINT((0.,1.5));
#531=IFCPOLYLINE((#527,#528,#529,#530,#527));
#532=IFCARBITRARYCLOSEDPROFILEDEF(.AREA.,$,#531);
#533=IFCDIRECTION((0.,0.,1.));
#534=IFCCARTESIANPOINT((0.,0.,0.));
#535=IFCAXIS2PLACEMENT3D(#534,$,$);
#536=IFCEXTRUDEDAREASOLID(#532,#535,#533,3.);
#537=IFCSHAPEREPRESENTATION(#11,'Body','SweptSolid',(#536));
#538=IFCPRODUCTDEFINITIONSHAPE($,$,(#537));
#539=IFCPRODUCTDEFINITIONSHAPE($,$,(#538));
#540=IFCCARTESIANPOINT((11.,6.5,0.));
#541=IFCDIRECTION((0.,0.,1.));
#542=IFCDIRECTION((1.,0.,0.));
#543=IFCAXIS2PLACEMENT3D(#540,#541,#542);
#544=IFCLOCALPLACEMENT(#382,#543);
#545=IFCSPACE('0ge788J_LFFwSzmHr7SaNn',$,'\X2\041B043504410442043D043804460430\X0\ 2-1',$,$,#568,#563,$,$,$,$);
#551=IFCCARTESIANPOINT((0.,0.));
#552=IFCCARTESIANPOINT((2.1000000000000001,0.));
#553=IFCCARTESIANPOINT((2.1000000000000001,5.5));
#554=IFCCARTESIANPOINT((0.,5.5));
#555=IFCPOLYLINE((#551,#552,#553,#554,#551));
#556=IFCARBITRARYCLOSEDPROFILEDEF(.AREA.,$,#555);
#557=IFCDIRECTION((0.,0.,1.));
#558=IFCCARTESIANPOINT((0.,0.,0.));
#559=IFCAXIS2PLACEMENT3D(#558,$,$);
#560=IFCEXTRUDEDAREASOLID(#556,#559,#557,3.);
#561=IFCSHAPEREPRESENTATION(#11,'Body','SweptSolid',(#560));
#562=IFCPRODUCTDEFINITIONSHAPE($,$,(#561));
#563=IFCPRODUCTDEFINITIONSHAPE($,$,(#562));
#564=IFCCARTESIANPOINT((13.,4.5,0.));
#565=IFCDIRECTION((0.,0.,1.));
#566=IFCDIRECTION((1.,0.,0.));
#567=IFCAXIS2PLACEMENT3D(#564,#565,#566);
#568=IFCLOCALPLACEMENT(#382,#567);
#569=IFCSPACE('3P9XM75MP5MREW860gkGFJ',$,'\X2\0413043E044104420438043D0430044F\X0\ (\X2\043A0432\X0\.1 2\X2\041A\X0\)',$,$,#592,#587,$,$,$,$);
#575=IFCCARTESIANPOINT((0.,0.));
#576=IFCCARTESIANPOINT((4.5,0.));
#577=IFCCARTESIANPOINT((4.5,5.5999999999999996));
#578=IFCCARTESIANPOINT((0.,5.5999999999999996));
#579=IFCPOLYLINE((#575,#576,#577,#578,#575));
#580=IFCARBITRARYCLOSEDPROFILEDEF(.AREA.,$,#579);
#581=IFCDIRECTION((0.,0.,1.));
#582=IFCCARTESIANPOINT((0.,0.,0.));
#583=IFCAXIS2PLACEMENT3D(#582,$,$);
#584=IFCEXTRUDEDAREASOLID(#580,#583,#581,2.7000000000000002);
#585=IFCSHAPEREPRESENTATION(#11,'Body','SweptSolid',(#584));
#586=IFCPRODUCTDEFINITIONSHAPE($,$,(#585));
#587=IFCPRODUCTDEFINITIONSHAPE($,$,(#586));
#588=IFCCARTESIANPOINT((0.40000000000000002,0.40000000000000002,0.));
#589=IFCDIRECTION((0.,0.,1.));
#590=IFCDIRECTION((1.,0.,0.));
#591=IFCAXIS2PLACEMENT3D(#588,#589,#590);
#592=IFCLOCALPLACEMENT(#382,#591);
#593=IFCSPACE('0S0lMOZ61EJv52jd_AFOnJ',$,'\X2\041A04430445043D044F\X0\ (\X2\043A0432\X0\.1 2\X2\041A\X0\)',$,$,#616,#611,$,$,$,$);
#599=IFCCARTESIANPOINT((0.,0.));
#600=IFCCARTESIANPOINT((3.,0.));
#601=IFCCARTESIANPOINT((3.,3.));
#602=IFCCARTESIANPOINT((0.,3.));
#603=IFCPOLYLINE((#599,#600,#601,#602,#599));
#604=IFCARBITRARYCLOSEDPROFILEDEF(.AREA.,$,#603);
#605=IFCDIRECTION((0.,0.,1.));
#606=IFCCARTESIANPOINT((0.,0.,0.));
#607=IFCAXIS2PLACEMENT3D(#606,$,$);
#608=IFCEXTRUDEDAREASOLID(#604,#607,#605,2.7000000000000002);
#609=IFCSHAPEREPRESENTATION(#11,'Body','SweptSolid',(#608));
#610=IFCPRODUCTDEFINITIONSHAPE($,$,(#609));
#611=IFCPRODUCTDEFINITIONSHAPE($,$,(#610));
#612=IFCCARTESIANPOINT((4.9000000000000004,0.40000000000000002,0.));
#613=IFCDIRECTION((0.,0.,1.));
#614=IFCDIRECTION((1.,0.,0.));
#615=IFCAXIS2PLACEMENT3D(#612,#613,#614);
#616=IFCLOCALPLACEMENT(#382,#615);
#617=IFCSPACE('3whLwPrqzASAl89I$WUWMS',$,'\X2\0421043F0430043B044C043D044F\X0\ (\X2\043A0432\X0\.1 2\X2\041A\X0\)',$,$,#640,#635,$,$,$,$);
#623=IFCCARTESIANPOINT((0.,0.));
#624=IFCCARTESIANPOINT((2.5,0.));
#625=IFCCARTESIANPOINT((2.5,3.5));
#626=IFCCARTESIANPOINT((0.,3.5));
#627=IFCPOLYLINE((#623,#624,#625,#626,#623));
#628=IFCARBITRARYCLOSEDPROFILEDEF(.AREA.,$,#627);
#629=IFCDIRECTION((0.,0.,1.));
#630=IFCCARTESIANPOINT((0.,0.,0.));
#631=IFCAXIS2PLACEMENT3D(#630,$,$);
#632=IFCEXTRUDEDAREASOLID(#628,#631,#629,2.7000000000000002);
#633=IFCSHAPEREPRESENTATION(#11,'Body','SweptSolid',(#632));
#634=IFCPRODUCTDEFINITIONSHAPE($,$,(#633));
#635=IFCPRODUCTDEFINITIONSHAPE($,$,(#634));
#636=IFCCARTESIANPOINT((7.9000000000000004,0.40000000000000002,0.));
#637=IFCDIRECTION((0.,0.,1.));
#638=IFCDIRECTION((1.,0.,0.));
#639=IFCAXIS2PLACEMENT3D(#636,#637,#638);
#640=IFCLOCALPLACEMENT(#382,#639);
#641=IFCSPACE('3ItyoY9Vb8i9qfnzB5agoC',$,'\X2\04210430043D044304370435043B\X0\ (\X2\043A0432\X0\.1 2\X2\041A\X0\)',$,$,#664,#659,$,$,$,$);
#647=IFCCARTESIANPOINT((0.,0.));
#648=IFCCARTESIANPOINT((2.,0.));
#649=IFCCARTESIANPOINT((2.,2.6000000000000001));
#650=IFCCARTESIANPOINT((0.,2.6000000000000001));
#651=IFCPOLYLINE((#647,#648,#649,#650,#647));
#652=IFCARBITRARYCLOSEDPROFILEDEF(.AREA.,$,#651);
#653=IFCDIRECTION((0.,0.,1.));
#654=IFCCARTESIANPOINT((0.,0.,0.));
#655=IFCAXIS2PLACEMENT3D(#654,$,$);
#656=IFCEXTRUDEDAREASOLID(#652,#655,#653,2.7000000000000002);
#657=IFCSHAPEREPRESENTATION(#11,'Body','SweptSolid',(#656));
#658=IFCPRODUCTDEFINITIONSHAPE($,$,(#657));
#659=IFCPRODUCTDEFINITIONSHAPE($,$,(#658));
#660=IFCCARTESIANPOINT((4.9000000000000004,3.3999999999999999,0.));
#661=IFCDIRECTION((0.,0.,1.));
#662=IFCDIRECTION((1.,0.,0.));
#663=IFCAXIS2PLACEMENT3D(#660,#661,#662);
#664=IFCLOCALPLACEMENT(#382,#663);
#665=IFCSPACE('17DmXoeKX0KhHSd6XzQ7Uh',$,'\X2\0413043E044104420438043D0430044F\X0\ (\X2\043A0432\X0\.2 1\X2\041A\X0\)',$,$,#688,#683,$,$,$,$);
#671=IFCCARTESIANPOINT((0.,0.));
#672=IFCCARTESIANPOINT((5.,0.));
#673=IFCCARTESIANPOINT((5.,5.5999999999999996));
#674=IFCCARTESIANPOINT((0.,5.5999999999999996));
#675=IFCPOLYLINE((#671,#672,#673,#674,#671));
#676=IFCARBITRARYCLOSEDPROFILEDEF(.AREA.,$,#675);
#677=IFCDIRECTION((0.,0.,1.));
#678=IFCCARTESIANPOINT((0.,0.,0.));
#679=IFCAXIS2PLACEMENT3D(#678,$,$);
#680=IFCEXTRUDEDAREASOLID(#676,#679,#677,2.7000000000000002);
#681=IFCSHAPEREPRESENTATION(#11,'Body','SweptSolid',(#680));
#682=IFCPRODUCTDEFINITIONSHAPE($,$,(#681));
#683=IFCPRODUCTDEFINITIONSHAPE($,$,(#682));
#684=IFCCARTESIANPOINT((13.6,8.,0.));
#685=IFCDIRECTION((0.,0.,1.));
#686=IFCDIRECTION((1.,0.,0.));
#687=IFCAXIS2PLACEMENT3D(#684,#685,#686);
#688=IFCLOCALPLACEMENT(#382,#687);
#689=IFCSPACE('2WlxsXE6rAmu7PbNvsRhVq',$,'\X2\041A04430445043D044F\X0\ (\X2\043A0432\X0\.2 1\X2\041A\X0\)',$,$,#712,#707,$,$,$,$);
#695=IFCCARTESIANPOINT((0.,0.));
#696=IFCCARTESIANPOINT((3.,0.));
#697=IFCCARTESIANPOINT((3.,3.));
#698=IFCCARTESIANPOINT((0.,3.));
#699=IFCPOLYLINE((#695,#696,#697,#698,#695));
#700=IFCARBITRARYCLOSEDPROFILEDEF(.AREA.,$,#699);
#701=IFCDIRECTION((0.,0.,1.));
#702=IFCCARTESIANPOINT((0.,0.,0.));
#703=IFCAXIS2PLACEMENT3D(#702,$,$);
#704=IFCEXTRUDEDAREASOLID(#700,#703,#701,2.7000000000000002);
#705=IFCSHAPEREPRESENTATION(#11,'Body','SweptSolid',(#704));
#706=IFCPRODUCTDEFINITIONSHAPE($,$,(#705));
#707=IFCPRODUCTDEFINITIONSHAPE($,$,(#706));
#708=IFCCARTESIANPOINT((18.600000000000001,8.,0.));
#709=IFCDIRECTION((0.,0.,1.));
#710=IFCDIRECTION((1.,0.,0.));
#711=IFCAXIS2PLACEMENT3D(#708,#709,#710);
#712=IFCLOCALPLACEMENT(#382,#711);
#713=IFCSPACE('0djeVoWhjARPZfVJ$R$IfY',$,'\X2\04210430043D044304370435043B\X0\ (\X2\043A0432\X0\.2 1\X2\041A\X0\)',$,$,#736,#731,$,$,$,$);
#719=IFCCARTESIANPOINT((0.,0.));
#720=IFCCARTESIANPOINT((2.,0.));
#721=IFCCARTESIANPOINT((2.,2.6000000000000001));
#722=IFCCARTESIANPOINT((0.,2.6000000000000001));
#723=IFCPOLYLINE((#719,#720,#721,#722,#719));
#724=IFCARBITRARYCLOSEDPROFILEDEF(.AREA.,$,#723);
#725=IFCDIRECTION((0.,0.,1.));
#726=IFCCARTESIANPOINT((0.,0.,0.));
#727=IFCAXIS2PLACEMENT3D(#726,$,$);
#728=IFCEXTRUDEDAREASOLID(#724,#727,#725,2.7000000000000002);
#729=IFCSHAPEREPRESENTATION(#11,'Body','SweptSolid',(#728));
#730=IFCPRODUCTDEFINITIONSHAPE($,$,(#729));
#731=IFCPRODUCTDEFINITIONSHAPE($,$,(#730));
#732=IFCCARTESIANPOINT((18.600000000000001,11.,0.));
#733=IFCDIRECTION((0.,0.,1.));
#734=IFCDIRECTION((1.,0.,0.));
#735=IFCAXIS2PLACEMENT3D(#732,#733,#734);
#736=IFCLOCALPLACEMENT(#382,#735);
ENDSEC;
END-ISO-10303-21;
